<?xml version="1.0" encoding="UTF-8"?>
<svg id="Layer_1" xmlns="http://www.w3.org/2000/svg" version="1.1" xmlns:xlink="http://www.w3.org/1999/xlink" viewBox="0 0 1664.19 246.79">
  <!-- Generator: Adobe Illustrator 30.6.0, SVG Export Plug-In . SVG Version: 2.1.4 Build 109)  -->
  <defs>
    <style>
      .st0 {
        fill: url(#linear-gradient2);
      }

      .st1 {
        fill: #f05fc7;
        font-family: Audiowide-Regular, Audiowide;
        font-size: 217.39px;
      }

      .st2 {
        fill: url(#linear-gradient1);
      }

      .st3 {
        fill: url(#linear-gradient4);
      }

      .st4 {
        fill: url(#linear-gradient3);
      }

      .st5 {
        fill: url(#linear-gradient);
      }
    </style>
    <linearGradient id="linear-gradient" x1="31.75" y1="-133.97" x2="1232.55" y2="390.38" gradientUnits="userSpaceOnUse">
      <stop offset=".07" stop-color="#315cff"/>
      <stop offset=".54" stop-color="#9b3dff"/>
      <stop offset="1" stop-color="#f05fc7"/>
    </linearGradient>
    <linearGradient id="linear-gradient1" x1="1367.07" y1="21.33" x2="1476.6" y2="156.36" gradientUnits="userSpaceOnUse">
      <stop offset=".07" stop-color="#315cff"/>
      <stop offset=".56" stop-color="#9b3dff"/>
      <stop offset="1" stop-color="#f05fc7"/>
    </linearGradient>
    <linearGradient id="linear-gradient2" x1="1389.02" y1="121.36" x2="1562.89" y2="121.36" xlink:href="#linear-gradient"/>
    <linearGradient id="linear-gradient3" x1="1562.03" y1="41.51" x2="1647.52" y2="196.23" xlink:href="#linear-gradient1"/>
    <linearGradient id="linear-gradient4" x1="1548.43" y1="52.43" x2="1661.35" y2="185.22" xlink:href="#linear-gradient"/>
  </defs>
  <text class="st1" transform="translate(1302.1337 184.8008)"><tspan x="0" y="0">.</tspan></text>
  <g>
    <path class="st5" d="M149.14,32.59h-21.65c-1.64,0-2.97,1.33-2.97,2.97v56.26c0,1.64-1.33,2.97-2.97,2.97H30.57c-1.64,0-2.97-1.33-2.97-2.97v-56.26c0-1.64-1.33-2.97-2.97-2.97H2.97c-1.64,0-2.97,1.33-2.97,2.97v146.27c0,1.64,1.33,2.97,2.97,2.97h21.65c1.64,0,2.97-1.33,2.97-2.97v-56.26c0-1.64,1.33-2.97,2.97-2.97h90.97c1.64,0,2.97,1.33,2.97,2.97v56.26c0,1.64,1.33,2.97,2.97,2.97h21.65c1.64,0,2.97-1.33,2.97-2.97V35.56c0-1.64-1.33-2.97-2.97-2.97Z"/>
    <path class="st5" d="M304.32,70.06h-21.65c-1.64,0-2.97,1.33-2.97,2.97v85.01c-.53-.51-1.26-.83-2.05-.83h-58.56c-3.75,0-6.58-.96-8.49-2.87s-2.87-4.67-2.87-8.28v-73.03c0-1.64-1.33-2.97-2.97-2.97h-21.65c-1.64,0-2.97,1.33-2.97,2.97v73.03c0,7.15,1.27,13.18,3.82,18.1,2.55,4.92,5.77,8.92,9.66,11.99,3.89,3.08,8.08,5.29,12.58,6.63,4.49,1.34,8.72,2.02,12.68,2.02h58.77c.8,0,1.52-.32,2.05-.83v11.87c0,3.61-.92,6.37-2.76,8.28-1.84,1.91-4.6,2.87-8.28,2.87h-46.81c-1.64,0-2.97,1.33-2.97,2.97v21.65c0,1.64,1.33,2.97,2.97,2.97h46.81c2.62,0,5.38-.3,8.28-.9,2.9-.6,5.79-1.54,8.65-2.81s5.61-2.92,8.23-4.94c2.62-2.02,4.92-4.46,6.9-7.32,1.98-2.87,3.57-6.19,4.78-9.98,1.2-3.79,1.8-8.05,1.8-12.79v-122.81c0-1.64-1.33-2.97-2.97-2.97Z"/>
    <path class="st5" d="M456.43,91.76c-1.27-2.87-2.92-5.61-4.94-8.23-2.02-2.62-4.46-4.92-7.32-6.9-2.87-1.98-6.17-3.57-9.92-4.78-3.75-1.2-8-1.8-12.74-1.8h-49.78c-2.55,0-5.29.3-8.23.9-2.94.6-5.84,1.54-8.7,2.81s-5.61,2.92-8.23,4.94c-2.62,2.02-4.94,4.46-6.95,7.32-2.02,2.87-3.63,6.17-4.83,9.92-1.2,3.75-1.8,8-1.8,12.74v109.01c0,1.64,1.33,2.97,2.97,2.97h21.65c1.64,0,2.97-1.33,2.97-2.97v-33.85c.54.58,1.31.94,2.16.94h58.77c2.62,0,5.38-.3,8.28-.9,2.9-.6,5.79-1.54,8.65-2.81,2.87-1.27,5.61-2.92,8.23-4.94,2.62-2.02,4.92-4.46,6.9-7.32,1.98-2.87,3.57-6.19,4.78-9.98,1.2-3.79,1.8-8.05,1.8-12.79v-37.36c0-2.62-.3-5.38-.9-8.28-.6-2.9-1.54-5.79-2.81-8.65ZM432.55,146.06c0,3.61-.92,6.37-2.76,8.28-1.84,1.91-4.6,2.87-8.28,2.87h-58.77c-.85,0-1.62.37-2.16.94v-49.45c0-3.61.96-6.35,2.87-8.23,1.91-1.87,4.74-2.81,8.49-2.81h49.57c3.61,0,6.35.92,8.23,2.76,1.87,1.84,2.81,4.67,2.81,8.49v37.15Z"/>
    <path class="st5" d="M604.23,158.48h-84.64c-3.4,0-6.25-1.03-8.54-3.08-2.3-2.05-3.45-4.92-3.45-8.6v-1.29c.48.34,1.07.55,1.71.55h59.85c6.93,0,12.83-1.27,17.67-3.82,4.85-2.55,8.77-5.71,11.78-9.5,3.01-3.79,5.18-7.89,6.53-12.31,1.34-4.42,2.02-8.54,2.02-12.37,0-6.93-1.27-12.83-3.82-17.67-2.55-4.85-5.72-8.77-9.5-11.78-3.79-3.01-7.89-5.18-12.31-6.53-4.42-1.34-8.54-2.02-12.37-2.02h-49.78c-6.94,0-12.83,1.27-17.67,3.82-4.85,2.55-8.78,5.71-11.78,9.5-3.01,3.79-5.18,7.89-6.53,12.31-1.34,4.42-2.02,8.54-2.02,12.37v38.74c0,6.94,1.27,12.83,3.82,17.67,2.55,4.85,5.71,8.78,9.5,11.78,3.78,3.01,7.89,5.18,12.31,6.53,4.42,1.34,8.54,2.02,12.37,2.02h84.85c1.64,0,2.97-1.33,2.97-2.97v-20.38c0-1.64-1.33-2.97-2.97-2.97ZM510.67,99.73c2.05-2.3,4.95-3.45,8.7-3.45h49.78c3.25,0,6.03,1.03,8.33,3.08,2.3,2.05,3.45,4.88,3.45,8.49,0,3.4-1.03,6.25-3.08,8.54-2.05,2.3-4.95,3.45-8.7,3.45h-59.85c-.64,0-1.23.21-1.71.55v-12.12c0-3.4,1.02-6.24,3.08-8.54Z"/>
    <path class="st5" d="M723.18,70.06h-59.34c-2.55,0-5.29.3-8.23.9-2.94.6-5.84,1.54-8.7,2.81s-5.61,2.92-8.23,4.94c-2.62,2.02-4.94,4.46-6.95,7.32-2.02,2.87-3.63,6.17-4.83,9.92-1.2,3.75-1.8,8-1.8,12.74v73.14c0,1.64,1.33,2.97,2.97,2.97h21.65c1.64,0,2.97-1.33,2.97-2.97v-73.14c0-3.61.96-6.35,2.87-8.23,1.91-1.87,4.74-2.81,8.49-2.81h59.12c1.64,0,2.97-1.33,2.97-2.97v-21.65c0-1.64-1.33-2.97-2.97-2.97Z"/>
    <rect class="st5" x="783.47" y="120.06" width="62.41" height="27.6" rx="2.97" ry="2.97"/>
    <path class="st5" d="M842.91,70.27h-59.44c-2.62,0-5.38.3-8.28.9-2.9.6-5.79,1.54-8.65,2.81s-5.61,2.92-8.23,4.94c-2.62,2.02-4.94,4.46-6.95,7.32-2.02,2.87-3.63,6.17-4.83,9.92-1.2,3.75-1.8,8-1.8,12.74v122.92c0,1.64,1.33,2.97,2.97,2.97h21.65c1.64,0,2.97-1.33,2.97-2.97v-122.92c0-3.61.96-6.35,2.87-8.23,1.91-1.87,4.74-2.81,8.49-2.81h59.23c1.64,0,2.97-1.33,2.97-2.97v-21.65c0-1.64-1.33-2.97-2.97-2.97Z"/>
    <path class="st5" d="M984.02,158.48h-84.64c-3.4,0-6.25-1.03-8.54-3.08-2.3-2.05-3.45-4.92-3.45-8.6v-1.29c.48.34,1.07.55,1.71.55h59.85c6.93,0,12.83-1.27,17.67-3.82,4.85-2.55,8.77-5.71,11.78-9.5,3.01-3.79,5.18-7.89,6.53-12.31,1.34-4.42,2.02-8.54,2.02-12.37,0-6.93-1.27-12.83-3.82-17.67-2.55-4.85-5.71-8.77-9.5-11.78-3.79-3.01-7.89-5.18-12.31-6.53-4.42-1.34-8.54-2.02-12.37-2.02h-49.78c-6.94,0-12.83,1.27-17.67,3.82-4.85,2.55-8.78,5.71-11.78,9.5-3.01,3.79-5.18,7.89-6.53,12.31-1.34,4.42-2.02,8.54-2.02,12.37v38.74c0,6.94,1.27,12.83,3.82,17.67,2.55,4.85,5.71,8.78,9.5,11.78,3.79,3.01,7.89,5.18,12.31,6.53,4.42,1.34,8.54,2.02,12.37,2.02h84.85c1.64,0,2.97-1.33,2.97-2.97v-20.38c0-1.64-1.33-2.97-2.97-2.97ZM890.46,99.73c2.05-2.3,4.95-3.45,8.7-3.45h49.78c3.25,0,6.03,1.03,8.33,3.08,2.3,2.05,3.45,4.88,3.45,8.49,0,3.4-1.03,6.25-3.08,8.54-2.05,2.3-4.95,3.45-8.7,3.45h-59.85c-.64,0-1.23.21-1.71.55v-12.12c0-3.4,1.03-6.24,3.08-8.54Z"/>
    <path class="st5" d="M1102.97,70.06h-59.34c-2.55,0-5.29.3-8.23.9-2.94.6-5.84,1.54-8.7,2.81s-5.61,2.92-8.23,4.94c-2.62,2.02-4.94,4.46-6.95,7.32-2.02,2.87-3.63,6.17-4.83,9.92-1.2,3.75-1.8,8-1.8,12.74v73.14c0,1.64,1.33,2.97,2.97,2.97h21.65c1.64,0,2.97-1.33,2.97-2.97v-73.14c0-3.61.96-6.35,2.87-8.23,1.91-1.87,4.74-2.81,8.49-2.81h59.12c1.64,0,2.97-1.33,2.97-2.97v-21.65c0-1.64-1.33-2.97-2.97-2.97Z"/>
    <path class="st5" d="M1282.04,86.03c-1.98-2.87-4.28-5.31-6.9-7.32-2.62-2.02-5.36-3.66-8.23-4.94-2.87-1.27-5.75-2.21-8.65-2.81-2.9-.6-5.66-.9-8.28-.9h-111.98c-1.91,0-3.72.35-5.41,1.06-1.7.71-3.18,1.68-4.46,2.92-1.27,1.24-2.27,2.69-2.97,4.35-.71,1.66-1.06,3.45-1.06,5.36v98.08c0,1.64,1.33,2.97,2.97,2.97h21.65c1.64,0,2.97-1.33,2.97-2.97v-81.2c0-1.64,1.33-2.97,2.97-2.97h32.91c3.75,0,6.58.94,8.49,2.81,1.91,1.88,2.87,4.62,2.87,8.23v73.14c0,1.64,1.33,2.97,2.97,2.97h21.65c1.64,0,2.97-1.33,2.97-2.97v-73.14c0-2.66-.21-5.19-.62-7.59-.31-1.81,1.09-3.45,2.93-3.45h21.15c3.75,0,6.53.94,8.33,2.81,1.8,1.88,2.71,4.62,2.71,8.23v73.14c0,1.64,1.33,2.97,2.97,2.97h21.65c1.64,0,2.97-1.33,2.97-2.97v-73.14c0-4.74-.6-8.99-1.8-12.74-1.2-3.75-2.8-7.06-4.78-9.92Z"/>
  </g>
  <g>
    <path class="st2" d="M1503.96,57.28c-6.43-11.57-16.98-17.43-29.64-17.05-11.29.34-21.51,7.44-26.92,18.57-3.89,7.99-4.74,17.45,0,25.85l31.75,56.21c3.04,5.38,2.39,12.31-1.14,17.03-3.02,4.04-9.23,6.98-15.01,5.81-7.39-1.49-12.89-5.76-17.32-11.56-12.12-15.82-34.48-16.89-47.8-3.06-13.06,13.55-11.44,35.57,3.41,46.69,15.51,11.61,36.16,7.58,46.83-9.74,5.29-8.6,13.27-13.22,22.88-14.54,29.54-4.06,32.77,19.07,42.49,25.66,12.53,8.49,28.29,6.45,38.78-3.05,10-9.05,14.22-24.32,7.01-37.29l-55.32-99.53Z"/>
    <path class="st0" d="M1503.96,57.28c-6.43-11.57-16.98-17.43-29.64-17.05-11.29.34-21.51,7.44-26.92,18.57-3.89,7.99-4.74,17.45,0,25.85l31.75,56.21c3.04,5.38,2.39,12.31-1.14,17.03-3.02,4.04-9.23,6.98-15.01,5.81-7.39-1.49-12.89-5.76-17.32-11.56-12.12-15.82-34.48-16.89-47.8-3.06-13.06,13.55-11.44,35.57,3.41,46.69,15.51,11.61,36.16,7.58,46.83-9.74,5.29-8.6,13.27-13.22,22.88-14.54,29.54-4.06,32.77,19.07,42.49,25.66,12.53,8.49,28.29,6.45,38.78-3.05,10-9.05,14.22-24.32,7.01-37.29l-55.32-99.53Z"/>
  </g>
  <g>
    <path class="st4" d="M1660.8,155.32l-45.15-82.32-14.49-23.87c-9.44-12.99-28.97-14.86-41.18-6.32-12.8,8.95-19.14,26.19-11.11,40.41l36.48,64.63,20.05,35.98c8.68,15.58,27.25,20.53,41.69,12.63,14.04-7.68,22.08-25.92,13.72-41.15ZM1575.04,91.77c-9.15-2.86-13.74-11.2-12.92-19.45.81-8.14,6.93-14.49,16.23-16.07,11.14-1.89,20.4,7.9,19.96,18.54-.47,11.5-11.15,20.75-23.26,16.97Z"/>
    <path class="st3" d="M1660.8,155.32l-45.15-82.32-14.49-23.87c-9.44-12.99-28.97-14.86-41.18-6.32-12.8,8.95-19.14,26.19-11.11,40.41l36.48,64.63,20.05,35.98c8.68,15.58,27.25,20.53,41.69,12.63,14.04-7.68,22.08-25.92,13.72-41.15ZM1575.04,91.77c-9.15-2.86-13.74-11.2-12.92-19.45.81-8.14,6.93-14.49,16.23-16.07,11.14-1.89,20.4,7.9,19.96,18.54-.47,11.5-11.15,20.75-23.26,16.97Z"/>
  </g>
</svg>